# AST/ASF file generated using VICON BodyLanguage
# -----------------------------------------------
:version 1.10
:name VICON
:units
  mass 1.0
  length 0.45
  angle deg
:documentation
   .ast/.asf automatically generated from VICON data using
   VICON BodyBuilder and BodyLanguage model FoxedUp or BRILLIANT.MOD
:root
   order TX TY TZ RX RY RZ
   axis XYZ
   position 0 0 0  
   orientation 0 0 0 
:bonedata
  begin
     id 1 
     name lhipjoint
     direction 0.660183 -0.676772 0.325788 
     length 2.75133 
     axis 0 0 0  XYZ
  end
  begin
     id 2 
     name lfemur
     direction 0.34202 -0.939693 0  
     length 7.70317  
     axis 0 0 20  XYZ
    dof rx ry rz
    limits (-160.0 20.0)
           (-70.0 70.0)
           (-60.0 70.0)
  end
  begin
     id 3 
     name ltibia
     direction 0.342105 -0.939662 0   
     length 7.18701   
     axis 0 0 20   XYZ
    dof rx
    limits (-10.0 170.0)
  end
  begin
     id 4 
     name lfoot
     direction 0.14163 -0.389126 0.910232   
     length 2.41719   
     axis -90 7.62852e-016 20   XYZ
    dof rx rz
    limits (-45.0 90.0)
           (-70.0 20.0)
  end
  begin
     id 5 
     name ltoes
     direction 1.53533e-011 -4.21926e-011 1   
     length 1.18611   
     axis -90 7.62852e-016 20   XYZ
    dof rx
    limits (-90.0 20.0)
  end
  begin
     id 6 
     name rhipjoint
     direction -0.6658 -0.67229 0.323631   
     length 2.76968  
     axis 0 0 0  XYZ 
  end
  begin
     id 7 
     name rfemur
     direction -0.34202 -0.939693 0   
     length 7.92547   
     axis 0 0 -20   XYZ
    dof rx ry rz
    limits (-160.0 20.0)
           (-70.0 70.0)
           (-70.0 60.0)
  end
  begin
     id 8 
     name rtibia
     direction -0.342022 -0.939692 0   
     length 7.22641   
     axis 0 0 -20   XYZ
    dof rx
    limits (-10.0 170.0)
 end
 begin
     id 9 
     name rfoot
     direction -0.105675 -0.29034 0.951071   
     length 2.48149  
     axis -90 -7.62852e-016 -20   XYZ
    dof rx rz
    limits (-45.0 90.0)
           (-20.0 70.0)
  end
  begin
     id 10 
     name rtoes
     direction -1.5349e-011 -4.21859e-011 1   
     length 1.23343   
     axis -90 -7.62852e-016 -20   XYZ
    dof rx
    limits (-90.0 20.0)
  end
  begin
     id 11 
     name lowerback
     direction 0.0104173 0.993624 -0.112266   
     length 2.00527   
     axis 0 0 0   XYZ
    dof rx ry rz
    limits (-20.0 45.0)
           (-30.0 30.0)
           (-30.0 30.0)
  end
  begin
     id 12 
     name upperback
     direction 0.00733149 0.999856 -0.0152913   
     length 2.01385   
     axis 0 0 0   XYZ
    dof rx ry rz
    limits (-20.0 45.0)
           (-30.0 30.0)
           (-30.0 30.0)
  end
  begin
     id 13 
     name thorax
     direction 0.0026304 0.999318 0.036841   
     length 2.03734   
     axis 0 0 0   XYZ
    dof rx ry rz
    limits (-20.0 45.0)
           (-30.0 30.0)
           (-30.0 30.0)
  end
  begin
     id 14 
     name lowerneck
     direction 0.0293154 0.998757 0.0403082   
     length 1.65303   
     axis 0 0 0   XYZ
    dof rx ry rz
    limits (-20.0 45.0)
           (-30.0 30.0)
           (-30.0 30.0)
  end
  begin
     id 15 
     name upperneck
     direction -0.0376619 0.998184 -0.0470083   
     length 1.60926   
     axis 0 0 0   XYZ
    dof rx ry rz
    limits (-20.0 45.0)
           (-30.0 30.0)
           (-30.0 30.0)
  end
  begin
     id 16
     name head
     direction -0.0170133 0.999635 -0.0209778  
     length 1.73625  
     axis 0 0 0   XYZ
    dof rx ry rz
    limits (-20.0 45.0)
           (-30.0 30.0)
           (-30.0 30.0)
  end
  begin
     id 17 
     name lclavicle
     direction 0.919857 0.39181 -0.0186333  
     length 3.75313  
     axis 0 0 0   XYZ
    dof ry rz
    limits (-20.0 10.0)
           (0.0 20.0)
  end
  begin
     id 18 
     name lhumerus
     direction 1 -4.48988e-011 1.44029e-027   
     length 5.49313   
     axis 180 -30 -90   XYZ
    dof rx ry rz
    limits (-60.0 90.0)
           (-90.0 90.0)
           (-90.0 90.0)
  end
  begin
     id 19
     name lradius
     direction 1 -4.48924e-011 7.46281e-027   
     length 3.29037   
     axis 180 -30 -90   XYZ
    dof rx
    limits (-10.0 170.0)
  end
  begin
     id 20
     name lwrist
     direction 1 -4.48955e-011 2.19879e-026   
     length 1.64519   
     axis -1.34358e-014 90 90   XYZ
    dof ry
    limits (-180.0 0.0)
 end
  begin
     id 21 
     name lhand
     direction 1 -4.48978e-011 4.39747e-026   
     length 0.729656   
     axis -2.80598e-014 90 90   XYZ
    dof rx rz
    limits (-90.0 90.0)
           (-45.0 45.0)
  end
  begin
     id 22 
     name lfingers
     direction 1 -4.49071e-011 8.79411e-026   
     length 0.588268   
     axis -5.61193e-014 90 90   XYZ
    dof rx
    limits (0.0 90.0)
  end
  begin
     id 23
     name lthumb
     direction 0.707107 -6.34817e-011 0.707107   
     length 0.844638   
     axis -90 45 -9.86923e-015   XYZ
    dof rx rz
    limits (-45.0 45.0)
           (-45.0 45.0)
  end
  begin
     id 24 
     name rclavicle
     direction -0.919898 0.388279 0.0550233   
     length 3.7171  
     axis 0 0 0   XYZ 
    dof ry rz
    limits (-10.0 20.0)
           (-20.0 0.0)
  end
  begin
     id 25 
     name rhumerus
     direction -1 -4.48968e-011 9.98372e-028  
     length 5.23684   
     axis 180 30 90   XYZ
    dof rx ry rz
    limits (-90.0 60.0)
           (-90.0 90.0)
           (-90.0 90.0)
  end
  begin
     id 26 
     name rradius
     direction -1 -4.48956e-011 1.01023e-026   
     length 3.38251   
     axis 180 30 90   XYZ
    dof rx
    limits (-10.0 170.0)
  end
  begin
     id 27 
     name rwrist
     direction -1 -4.4892e-011 2.19886e-026   
     length 1.69126   
     axis -1.34358e-014 -90 -90   XYZ
    dof ry
    limits (-180.0 0.0)
  end
  begin
     id 28
     name rhand
     direction -1 -4.49024e-011 4.39727e-026   
     length 0.691454   
     axis -2.80598e-014 -90 -90   XYZ
    dof rx rz
    limits (-90.0 90.0)
           (-45.0 45.0)
  end
  begin
     id 29
     name rfingers
     direction -1 -4.49097e-011 8.79388e-026   
     length 0.557468   
     axis -5.61193e-014 -90 -90   XYZ
    dof rx
    limits (0.0 90.0)
  end
  begin
     id 30
     name rthumb
     direction -0.707107 -6.34938e-011 0.707107   
     length 0.800416   
     axis -90 -45 9.86923e-015   XYZ
    dof rx rz
    limits (-45.0 45.0)
           (-45.0 45.0)
  end
:hierarchy
  begin
    root lhipjoint rhipjoint lowerback
    lhipjoint lfemur
    lfemur ltibia
    ltibia lfoot
    lfoot ltoes
    rhipjoint rfemur
    rfemur rtibia
    rtibia rfoot
    rfoot rtoes
    lowerback upperback
    upperback thorax
    thorax lowerneck lclavicle rclavicle
    lowerneck upperneck
    upperneck head
    lclavicle lhumerus
    lhumerus lradius
    lradius lwrist
    lwrist lhand lthumb
    lhand lfingers
    rclavicle rhumerus
    rhumerus rradius
    rradius rwrist
    rwrist rhand rthumb
    rhand rfingers
  end

#!OML:ASF H:\BabyWalks\Project 1\Capture day 1\Session 1\baby.ASF
:FULLY-SPECIFIED
:DEGREES
433
root -33.3552 17.9576 -3.12896 -27.2987 83.9836 -41.6844
lowerback 18.0739 -1.75037 -1.15752
upperback 4.05108 -2.0364 3.4139
thorax -5.586 -0.868405 4.75935
lowerneck -1.59525 1.53702 5.19722
upperneck -10.7273 1.69685 -7.40049
head -3.10237 0.969721 -3.43913
rclavicle 4.45278e-014 -2.80783e-014
rhumerus -57.0593 20.5907 -87.9249
rradius 44.039
rwrist -8.15171
rhand -3.68 -16.6663
rfingers 7.12502
rthumb 22.0612 -45.4279
lclavicle 4.45278e-014 -2.80783e-014
lhumerus -48.9633 -6.78664 81.1165
lradius 64.3818
lwrist -12.5439
lhand -15.9106 -6.83743
lfingers 7.12502
lthumb 10.2864 22.891
rfemur -26.8813 8.40783 16.833
rtibia 25.3829
rfoot -17.1161 1.51302
rtoes -16.3523
lfemur -10.5373 -6.25427 -13.8566
ltibia 19.6638
lfoot -24.1899 -9.87976
ltoes 5.17706
434
root -33.2538 17.9408 -3.11755 -27.0873 84.3805 -41.4882
lowerback 18.0107 -1.757 -0.85442
upperback 3.9859 -1.96846 3.65408
thorax -5.63049 -0.834953 4.82948
lowerneck -1.85804 1.46623 5.51148
upperneck -10.6439 1.54563 -8.13232
head -3.0363 0.90338 -3.75016
rclavicle -4.96962e-016 -2.38542e-014
rhumerus -56.8515 20.308 -87.4876
rradius 43.7858
rwrist -7.89611
rhand -3.49324 -16.7664
rfingers 7.12502
rthumb 22.2405 -45.5067
lclavicle -4.96962e-016 -2.38542e-014
lhumerus -49.3363 -6.66584 81.7255
lradius 63.7891
lwrist -12.593
lhand -15.2008 -6.52103
lfingers 7.12502
lthumb 10.9711 23.1723
rfemur -26.7405 8.32521 16.8299
rtibia 25.4029
rfoot -17.0082 1.24564
rtoes -15.1935
lfemur -10.4437 -5.87259 -14.0957
ltibia 19.9666
lfoot -24.2709 -10.8274
ltoes 5.35138
435
root -33.1542 17.9207 -3.10337 -26.6619 84.8137 -41.0395
lowerback 17.9844 -1.7575 -0.587324
upperback 3.94028 -1.89899 3.87233
thorax -5.67314 -0.800103 4.89742
lowerneck -2.12868 1.38797 5.79675
upperneck -10.8391 1.34026 -9.10175
head -2.73674 0.842895 -3.74364
rclavicle 1.80894e-014 -2.0276e-014
rhumerus -56.5994 20.0204 -87.0807
rradius 43.507
rwrist -7.53413
rhand -3.342 -16.8311
rfingers 7.12502
rthumb 22.3857 -45.5541
lclavicle 1.80894e-014 -2.0276e-014
lhumerus -49.6852 -6.5675 82.3152
lradius 63.1469
lwrist -12.6369
lhand -14.502 -6.14607
lfingers 7.12502
lthumb 11.645 23.5103
rfemur -26.5538 8.33771 16.7806
rtibia 25.584
rfoot -16.8387 1.22738
rtoes -12.8398
lfemur -10.4186 -5.4312 -14.3573
ltibia 20.4541
lfoot -24.3584 -11.8982
ltoes 5.49013
436
root -33.0568 17.8966 -3.08609 -26.0497 85.2867 -40.3626
lowerback 18.0029 -1.75403 -0.354124
upperback 3.91447 -1.82989 4.07013
thorax -5.71798 -0.764672 4.96426
lowerneck -2.3684 1.29935 6.06022
upperneck -10.8418 1.16787 -9.75752
head -2.69954 0.768064 -3.98595
rclavicle 2.98177e-015 -6.2816e-014
rhumerus -56.3035 19.7283 -86.7046
rradius 43.209
rwrist -7.08071
rhand -3.22668 -16.8619
rfingers 7.12502
rthumb 22.4964 -45.5715
lclavicle 2.98177e-015 -6.2816e-014
lhumerus -50.006 -6.49755 82.8838
lradius 62.4565
lwrist -12.6584
lhand -13.8181 -5.71903
lfingers 7.12502
lthumb 12.3045 23.8989
rfemur -26.3278 8.52558 16.6586
rtibia 25.9154
rfoot -16.7286 1.17034
rtoes -9.85743
lfemur -10.4624 -4.96544 -14.6263
ltibia 21.157
lfoot -24.4241 -13.0773
ltoes 5.67974
437
root -32.9626 17.8697 -3.06577 -25.3192 85.8048 -39.5369
lowerback 18.0683 -1.75308 -0.142717
upperback 3.90233 -1.76721 4.24775
thorax -5.77262 -0.731661 5.02498
lowerneck -2.59163 1.20189 6.29402
upperneck -10.8845 0.987024 -10.3527
head -2.67992 0.688925 -4.20641
rclavicle -3.37934e-015 -3.69739e-014
rhumerus -55.9663 19.4356 -86.3659
rradius 42.897
rwrist -6.54035
rhand -3.14703 -16.8655
rfingers 7.12502
rthumb 22.5729 -45.5658
lclavicle -3.37934e-015 -3.69739e-014
lhumerus -50.2994 -6.44902 83.4223
lradius 61.7226
lwrist -12.653
lhand -13.1542 -5.27549
lfingers 7.12502
lthumb 12.9446 24.303
rfemur -26.0839 8.85772 16.4703
rtibia 26.3771
rfoot -16.7138 0.957975
rtoes -6.54853
lfemur -10.6283 -4.47795 -14.8934
ltibia 22.1327
lfoot -24.4532 -14.3616
ltoes 5.82227
438
root -32.8702 17.8409 -3.04296 -24.4507 86.3451 -38.5234
lowerback 18.1886 -1.75043 0.0614299
upperback 3.91385 -1.70177 4.40699
thorax -5.83172 -0.696742 5.07106
lowerneck -2.79269 1.09387 6.49272
upperneck -10.9738 0.794878 -10.8865
head -2.68094 0.604862 -4.40375
rclavicle 9.93923e-015 -5.84427e-014
rhumerus -55.5877 19.1431 -86.0607
rradius 42.5797
rwrist -5.92835
rhand -3.10962 -16.846
rfingers 7.12502
rthumb 22.6088 -45.5419
lclavicle 9.93923e-015 -5.84427e-014
lhumerus -50.561 -6.41912 83.9303
lradius 60.9473
lwrist -12.6245
lhand -12.5121 -4.84505
lfingers 7.12502
lthumb 13.5634 24.6932
rfemur -25.7996 9.38065 16.2238
rtibia 26.9438
rfoot -16.8711 0.483285
rtoes -3.40069
lfemur -10.9115 -3.98661 -15.1464
ltibia 23.43
lfoot -24.3912 -15.7225
ltoes 6.01383
439
root -32.7808 17.8111 -3.01798 -23.7417 86.902 -37.6397
lowerback 18.3484 -1.74817 0.277233
upperback 3.94677 -1.63202 4.55847
thorax -5.88984 -0.659394 5.10207
lowerneck -2.96772 0.976466 6.66021
upperneck -11.113 0.592115 -11.3648
head -2.70402 0.516787 -4.58036
rclavicle -3.57812e-015 7.07673e-014
rhumerus -55.1588 18.8526 -85.7781
rradius 42.2614
rwrist -5.25486
rhand -3.09633 -16.8116
rfingers 7.12502
rthumb 22.6215 -45.506
lclavicle -3.57812e-015 7.07673e-014
lhumerus -50.7827 -6.39685 84.4075
lradius 60.131
lwrist -12.589
lhand -11.8776 -4.39438
lfingers 7.12502
lthumb 14.175 25.102
rfemur -25.4941 10.0094 15.9609
rtibia 27.5779
rfoot -17.2081 -0.26648
rtoes -0.892273
lfemur -11.3651 -3.49727 -15.3573
ltibia 25.1017
lfoot -24.1965 -17.1445
ltoes 6.19122
440
root -32.6943 17.7816 -2.9914 -23.8073 87.455 -37.512
lowerback 18.5438 -1.74972 0.539319
upperback 3.99671 -1.55475 4.70965
thorax -5.95052 -0.618333 5.10537
lowerneck -3.1166 0.851849 6.78619
upperneck -11.2972 0.382185 -11.7809
head -2.74748 0.426775 -4.73215
rclavicle -5.76476e-014 -6.36111e-015
rhumerus -54.6812 18.5688 -85.5118
rradius 41.9498
rwrist -4.54458
rhand -3.09168 -16.7631
rfingers 7.12502
rthumb 22.626 -45.457
lclavicle -5.76476e-014 -6.36111e-015
lhumerus -50.9728 -6.37092 84.8513
lradius 59.2843
lwrist -12.5661
lhand -11.2547 -3.93911
lfingers 7.12502
lthumb 14.7751 25.5142
rfemur -25.1766 10.6735 15.7313
rtibia 28.2409
rfoot -17.6986 -1.26222
rtoes 0.568648
lfemur -12.0237 -3.01249 -15.4939
ltibia 27.1681
lfoot -23.8052 -18.617
ltoes 6.34217
441
root -32.6098 17.7526 -2.9641 -25.7526 87.9686 -39.2345
lowerback 18.767 -1.75087 0.870537
upperback 4.07642 -1.45842 4.8719
thorax -5.99664 -0.568108 5.07657
lowerneck -3.23378 0.719591 6.87095
upperneck -11.5333 0.163766 -12.1405
head -2.81416 0.334996 -4.86076
rclavicle -1.19271e-015 -3.10104e-014
rhumerus -54.1453 18.3002 -85.2471
rradius 41.6559
rwrist -3.82585
rhand -3.08218 -16.7121
rfingers 7.12502
rthumb 22.6351 -45.4048
lclavicle -1.19271e-015 -3.10104e-014
lhumerus -51.1283 -6.33205 85.2683
lradius 58.4177
lwrist -12.5631
lhand -10.6348 -3.46249
lfingers 7.12502
lthumb 15.3722 25.9461
rfemur -24.8228 11.2977 15.5942
rtibia 28.8987
rfoot -18.2852 -2.37923
rtoes 0.941152
lfemur -12.8758 -2.52828 -15.5271
ltibia 29.626
lfoot -23.1606 -20.1057
ltoes 6.4372
442
root -32.5269 17.7242 -2.93667 -31.4473 88.4048 -44.6878
lowerback 19.0107 -1.75028 1.28651
upperback 4.17947 -1.33738 5.04962
thorax -6.03153 -0.505981 5.00994
lowerneck -3.32393 0.585151 6.91275
upperneck -11.8006 -0.0544566 -12.438
head -2.89622 0.245071 -4.96364
rclavicle -2.06736e-014 7.15625e-015
rhumerus -53.5614 18.0641 -84.9866
rradius 41.3903
rwrist -3.1209
rhand -3.04844 -16.662
rfingers 7.12502
rthumb 22.6675 -45.3508
lclavicle -2.06736e-014 7.15625e-015
lhumerus -51.2662 -6.27399 85.6569
lradius 57.5387
lwrist -12.6024
lhand -10.0396 -3.01463
lfingers 7.12502
lthumb 15.9455 26.349
rfemur -24.4425 11.8217 15.5875
rtibia 29.5238
rfoot -18.8876 -3.48305
rtoes 0.26371
lfemur -13.9195 -2.0448 -15.4351
ltibia 32.4266
lfoot -22.2227 -21.5896
ltoes 6.34856
443
root -32.4454 17.6953 -2.90998 -43.1342 88.708 -56.1201
lowerback 19.2609 -1.74424 1.78642
upperback 4.30743 -1.18668 5.24641
thorax -6.04537 -0.429404 4.9079
lowerneck -3.39924 0.454211 6.91201
upperneck -12.0788 -0.26365 -12.6711
head -2.98453 0.16039 -5.03954
rclavicle -2.70347e-014 4.05521e-014
rhumerus -52.9292 17.8763 -84.7241
rradius 41.1568
rwrist -2.4387
rhand -2.9843 -16.6042
rfingers 7.12502
rthumb 22.729 -45.2855
lclavicle -2.70347e-014 4.05521e-014
lhumerus -51.3935 -6.20201 86.0253
lradius 56.6619
lwrist -12.6712
lhand -9.46399 -2.52514
lfingers 7.12502
lthumb 16.4998 26.7933
rfemur -24.0339 12.1962 15.7325
rtibia 30.1002
rfoot -19.4679 -4.47802
rtoes -1.22627
lfemur -15.1311 -1.57562 -15.2101
ltibia 35.4942
lfoot -20.9727 -23.0212
ltoes 5.93998
444
root -32.3642 17.6667 -2.88403 -60.2566 88.8226 -72.9715
lowerback 19.5156 -1.73133 2.34402
upperback 4.45763 -1.00998 5.45795
thorax -6.03819 -0.339648 4.78163
lowerneck -3.46311 0.331719 6.8849
upperneck -12.3466 -0.45668 -12.8489
head -3.07109 0.0831884 -5.09363
rclavicle -2.06736e-014 -4.69132e-014
rhumerus -52.253 17.7502 -84.4609
rradius 40.9571
rwrist -1.79526
rhand -2.87705 -16.5375
rfingers 7.12502
rthumb 22.832 -45.2061
lclavicle -2.06736e-014 -4.69132e-014
lhumerus -51.5267 -6.12632 86.378
lradius 55.8021
lwrist -12.7581
lhand -8.91338 -2.02836
lfingers 7.12502
lthumb 17.0298 27.2452
rfemur -23.5994 12.4275 16.0149
rtibia 30.6287
rfoot -19.9934 -5.27845
rtoes -3.06414
lfemur -16.4651 -1.121 -14.8715
ltibia 38.7259
lfoot -19.4303 -24.3183
ltoes 5.02233
